<svg id="Layer_1" data-name="Layer 1" xmlns="http://www.w3.org/2000/svg" width="64" height="64" viewBox="0 0 64 64"><defs><style>.cls-1{fill:#fff;}</style></defs><path class="cls-1" d="M32,64C15.26,64.45,0,50.22,0,32a32,32,0,1,1,64,.32C63.88,50.47,48.54,64.49,32,64ZM32,60.72A28.69,28.69,0,1,0,3.34,32.09,28.59,28.59,0,0,0,32,60.72Z" transform="translate(0)"/><path class="cls-1" d="M32,59.51a28,28,0,0,1-14-3.85,1.33,1.33,0,0,1-.72-1.18A28,28,0,0,1,19.6,41.7a46.45,46.45,0,0,1,4.49-8.44c.13-.2.23-.52.51-.47s.3.4.36.65a55.31,55.31,0,0,0,5.9,15.67,30.4,30.4,0,0,0,7.48,8.8c.17.13.43.23.4.5s-.37.3-.59.36A27.78,27.78,0,0,1,32,59.51Z" transform="translate(0)"/><path class="cls-1" d="M4.82,35.49a1.06,1.06,0,0,1,.48-.9,24.78,24.78,0,0,1,7.56-4.84,42.12,42.12,0,0,1,11.8-3l1.59-.17c.21,0,.44-.07.57.13s-.06.39-.18.54a62.2,62.2,0,0,0-3.79,5.2,43.88,43.88,0,0,0-6.34,14.08,25.32,25.32,0,0,0-.73,6.55c0,.24.09.54-.18.68s-.46-.11-.65-.25A27.16,27.16,0,0,1,5.09,37.07C5,36.54,4.91,36,4.82,35.49Z" transform="translate(0)"/><path class="cls-1" d="M32.31,4.6c.56,0,1.42.13,2.28.13.48,0,.67.34.88.68a24.26,24.26,0,0,1,2.91,7.84,36.87,36.87,0,0,1,.72,8.11,47.08,47.08,0,0,1-.53,6.28c0,.19,0,.45-.23.53s-.39-.17-.52-.34a63,63,0,0,0-6.73-7.32A37.39,37.39,0,0,0,17.71,12.2c-.86-.28-1.74-.47-2.62-.7-.21-.06-.49,0-.58-.28s.19-.43.37-.57A26.92,26.92,0,0,1,26.26,5.23,29.81,29.81,0,0,1,32.31,4.6Z" transform="translate(0)"/><path class="cls-1" d="M4.6,31.34a27.42,27.42,0,0,1,7.56-18.22,1.15,1.15,0,0,1,1.14-.4,28.27,28.27,0,0,1,12.41,5.33,47.52,47.52,0,0,1,6.66,5.78,1.6,1.6,0,0,1,.25.27c.14.17.38.32.28.57s-.39.19-.61.19a67.08,67.08,0,0,0-9.28.62c-6,.9-11.75,2.65-16.74,6.32-.35.25-.68.54-1,.81-.12.1-.25.24-.43.17s-.21-.29-.21-.48S4.6,31.77,4.6,31.34Z" transform="translate(0)"/><path class="cls-1" d="M56.89,43.45c-.08.2-.15.39-.24.58A27.48,27.48,0,0,1,41.57,57.76a1.05,1.05,0,0,1-1.08-.16,25.9,25.9,0,0,1-7.43-7.75A45.23,45.23,0,0,1,28,39c-.07-.22-.26-.48,0-.7s.5,0,.72.12a57.1,57.1,0,0,0,13.42,4.72,31.46,31.46,0,0,0,14.12.07C56.5,43.14,56.81,43,56.89,43.45Z" transform="translate(0)"/><path class="cls-1" d="M50.69,42.46a43.62,43.62,0,0,1-15.93-3c-.17-.06-.39-.1-.4-.34s.23-.32.41-.4a63.1,63.1,0,0,0,7.7-4.31A40.23,40.23,0,0,0,53.34,24.31a26.4,26.4,0,0,0,2.45-4.21c.09-.2.12-.49.4-.5s.37.29.47.5a27.83,27.83,0,0,1,2.65,10,28.27,28.27,0,0,1-1.2,10.31,1.34,1.34,0,0,1-1,1A21.52,21.52,0,0,1,50.69,42.46Z" transform="translate(0)"/><path class="cls-1" d="M37.76,5.23a24,24,0,0,1,3.81,1.12A27.41,27.41,0,0,1,54.77,16.8a1.4,1.4,0,0,1,.17,1.43,26.52,26.52,0,0,1-5.63,8.57,44.85,44.85,0,0,1-9.68,7.61c-.2.12-.42.35-.67.17s-.07-.46,0-.69a64.58,64.58,0,0,0,1.45-9,38.82,38.82,0,0,0-1.7-16.16A22,22,0,0,0,37.4,5.83C37.22,5.47,37.23,5.22,37.76,5.23Z" transform="translate(0)"/></svg>