<svg id="Layer_1" data-name="Layer 1" xmlns="http://www.w3.org/2000/svg" viewBox="0 0 495.93 277.71"><defs><style>.cls-1{fill:#712b90;}</style></defs><path class="cls-1" d="M553.83,544.44l-11.59-21-12-21.7-11.5-20.85L506.63,459l-11.42-20.66-12.18-22L471.7,395.83l-12.28-22.17-11.28-20.38L435.82,331l-11.19-20.23-12.41-22.45L399.8,310.74,388.61,331l-12.32,22.31L365,373.66l-11.28-20.38L341.41,331l-11.19-20.23-12.41-22.45-12.42,22.45L294.2,331l-12.32,22.31L270.6,373.66l-11.28-20.38L247,331l-11.19-20.23L223.4,288.29,211,310.74,199.79,331l-12.32,22.31-11.28,20.38-12.28,22.17-11.32,20.56-12.19,22L129,459.07l-12.1,21.84-11.51,20.85-12,21.7-11.6,21L69.87,566h47.2L129,544.44l11.59-21,12-21.7,11.5-20.85,12.1-21.84,11.42-20.7,12.18-22,11.37-20.51,12.24-22.17,12.23,22.17L247,416.34l-12.19,22L223.4,459l-12.1,21.88-11.51,20.85-12,21.7-11.6,21L164.28,566h47.2l11.92-21.56,11.59-21,12-21.75,11.5-20.8,12.1-21.84,12,21.84,11.55,20.85,12,21.7,11.6,21,11.59-21,12-21.7,11.51-20.85L365,459l12.1,21.88,11.5,20.85,12,21.7,11.6,20.94L424.13,566h47.21l-11.92-21.6-11.59-20.94-12-21.75-11.51-20.8-12.09-21.84-11.42-20.7-12.19-22,11.33-20.51,12.28-22.17,12.23,22.17,11.37,20.56,12.14,22,11.46,20.7,12.05,21.84L483,501.76l12,21.7,11.6,21L518.54,566h47.25ZM329.22,438.37l-11.41,20.7-11.46-20.7-12.15-22,11.37-20.56,12.24-22.17,12.28,22.17,11.32,20.51Z" transform="translate(-69.87 -288.29)"/></svg>