<svg id="Layer_1" data-name="Layer 1" xmlns="http://www.w3.org/2000/svg" viewBox="0 0 1.5 3.82"><defs><style>.cls-1{fill:#fff;}</style></defs><path class="cls-1" d="M1046.2,668.65a1.08,1.08,0,0,1-.66.93,3.87,3.87,0,0,1-.67.26s-.11,0-.15,0a.12.12,0,0,1,.08-.17,1.55,1.55,0,0,0,.49-.21.86.86,0,0,0,.48-.65c0-.19,0-.22-.28-.14a.7.7,0,0,1-.32.05.48.48,0,0,1-.42-.23.34.34,0,0,1,.09-.44.87.87,0,0,1,1,0A.69.69,0,0,1,1046.2,668.65Z" transform="translate(-1044.71 -666.05)"/><path class="cls-1" d="M1044.85,666.47c0-.24.24-.42.55-.42s.56.18.57.41-.25.42-.56.42S1044.85,666.7,1044.85,666.47Z" transform="translate(-1044.71 -666.05)"/></svg>