<svg id="Layer_1" data-name="Layer 1" xmlns="http://www.w3.org/2000/svg" viewBox="0 0 520 520"><defs><style>.cls-1{fill:none;stroke:#fff;stroke-miterlimit:10;stroke-width:20px;}.cls-2{fill:#fff;}</style></defs><circle class="cls-1" cx="260" cy="260" r="250"/><path class="cls-2" d="M350,225h74.33c15.47,0,29.41,11.36,34.49,27.91a45.1,45.1,0,0,1,2,13.38q0,83.69,0,167.37c0,17.63-10,33.33-24.74,39.12a31.7,31.7,0,0,1-11.69,2.2H275.67c-15.45,0-29.41-11.37-34.49-27.92a44.41,44.41,0,0,1-2-13.19q0-83.88,0-167.76c0-17.43,10.08-33.19,24.74-38.91A32.1,32.1,0,0,1,275.84,225Q312.92,225,350,225ZM299.65,352.4q0,34.92,0,69.83c0,1.47,0,2.64,1.83,2.62,20.68-.23,41.37.31,62-.31a54.29,54.29,0,0,0,23.27-5.8c9.84-5,16.2-13.27,18.46-25.29a53.7,53.7,0,0,0,.29-16.88c-1-7.53-3.34-14.42-8.07-20.08a27.91,27.91,0,0,0-13.63-8.75c-.63-.2-1.6-.06-1.7-1s.8-1,1.34-1.29a26.33,26.33,0,0,0,4.35-2.79,29.9,29.9,0,0,0,11.37-17.73,46,46,0,0,0,0-19.85c-1.67-7.95-5.59-14-11.69-18.31A37.41,37.41,0,0,0,366,279.92c-21.2-.22-42.41-.12-63.61-.14-2.72,0-2.72,0-2.72,3.18Z" transform="translate(-90 -90)"/><path class="cls-2" d="M344.82,358.54c6.8,0,13.6-.27,20.38.08s12.52,3.28,16.19,10.15a20.81,20.81,0,0,1,2.28,7.3c.65,5.34.6,10.67-1.38,15.7-3.11,7.93-8.84,12-16.24,12.46-14.15,1-28.32.22-42.48.41-1.43,0-1.92-.69-1.92-2.23q0-20.87,0-41.71c0-1.7.65-2.26,2.1-2.25,7,.05,14.05,0,21.07,0Z" transform="translate(-90 -90)"/><path class="cls-2" d="M343.27,300c6.28,0,12.56-.16,18.83.05a16.51,16.51,0,0,1,12.08,5.38,9.82,9.82,0,0,1,2,3.17c2.85,7.48,3.24,15-.25,22.33-2.78,5.8-7.56,8.5-13.2,9.42a38.78,38.78,0,0,1-6.55.36H324c-2.17,0-2.36-.22-2.36-2.69q0-17.62,0-35.27c0-2.6.18-2.8,2.43-2.8h19.17Z" transform="translate(-90 -90)"/></svg>