<svg id="Layer_1" data-name="Layer 1" xmlns="http://www.w3.org/2000/svg" viewBox="0 0 520 520"><defs><style>.cls-1{fill:none;stroke:#fff;stroke-miterlimit:10;stroke-width:20px;}.cls-2{fill:#fff;}</style></defs><circle class="cls-1" cx="260" cy="260" r="250"/><path class="cls-2" d="M474.94,350c0,17-.06,34,0,50.94,0,8.87-4.12,15.43-12.73,19.85q-49.46,25.35-98.88,50.74c-9,4.63-18,4.54-27-.08q-49.18-25.28-98.41-50.5c-8.76-4.48-12.93-11.1-12.92-20q0-50.94,0-101.88c0-8.95,4.23-15.53,13-20q46.64-23.85,93.21-47.8c2-1,3.92-2.07,5.91-3.06,8.5-4.26,17.08-4.4,25.54-.08q49.61,25.37,99.14,50.84c9,4.59,13.35,11.27,13.24,20.57C474.8,316.41,474.94,333.23,474.94,350ZM349.82,423.53a79.71,79.71,0,0,0,8.46-.39c26.74-2.72,47.23-14.32,61.91-34.31,1.31-1.79.87-2.52-1.06-3.5-9.91-5-19.74-10.16-29.6-15.26-3.44-1.77-3.33-1.71-5.7,1.11-10.18,12.15-23.79,17.41-40.62,15.19-20.47-2.7-36.61-19.76-34.46-40,1.88-17.72,18.62-33.31,41.23-33.28,14.43,0,26,5.67,34.25,16.36,1.29,1.67,2.19,1.57,3.91.67,9.68-5.05,19.42-10,29.15-15,4.29-2.19,4.31-2.16,1.58-5.86-.15-.21-.3-.41-.46-.61-19.61-24-46.08-35-79.2-31.55C292.46,282,260,322.07,268.6,363.3,275.87,398.16,310.05,423.51,349.82,423.53Zm95.62-55.95c3.93,0,4.09,0,4-3.39,0-2.46,1.53-2.65,3.52-2.49,2.36.2,3.43-.61,3.14-2.77a14.54,14.54,0,0,1,0-2.19c0-1.2-.61-1.7-2-1.83-4.62-.43-4.62-.46-4.62-4.63a12.06,12.06,0,0,0,0-1.7c-.34-2.36.83-3.34,3.42-3,2.88.36,3.31-1,3.23-3.18-.13-3.5,0-3.62-3.34-3.56-2.42,0-3.67-.63-3.3-2.93s-.84-3.28-3.42-3a16,16,0,0,1-2.19,0c-1.57,0-2.27.54-2.36,2-.25,3.87-.32,3.87-4.65,3.87-.55,0-1.09,0-1.64,0-3.72,0-3.83,0-3.81-3.39,0-1.94-2-2.43-2.94-2.5-.61-.05-1.64,0-2.46,0-1.84-.1-2.58.6-2.62,2.29-.07,3.46-.16,3.54-3.84,3.57-2,0-2.9.63-2.74,2.43a18.06,18.06,0,0,1,0,2.44c-.05,1.32.62,1.84,2.11,1.95,4.49.31,4.48.35,4.48,4.26a16.15,16.15,0,0,0,0,2.2c.31,2.27-.88,3.18-3.32,2.88-3-.38-3.41,1.13-3.35,3.34s.06,3.83,3.25,3.44c2.6-.31,3.78.7,3.4,3s.92,3.07,3.33,2.86c.9-.08,1.82,0,2.73,0a1.67,1.67,0,0,0,1.88-1.65c.62-4.22.65-4.21,5.41-4.21.64,0,1.28,0,1.91,0,2.11-.14,2.9.67,2.89,2.57C441.58,367.57,441.68,367.57,445.44,367.58Z" transform="translate(-90 -90)"/><path class="cls-2" d="M431.4,350a10.15,10.15,0,0,0,0-1.46c-.33-2.34.83-3.11,3.42-3.05,7.84.17,6.66-.7,6.74,5.89,0,3.49,0,3.49-3.94,3.51h-.82C430.71,354.92,431.45,355.13,431.4,350Z" transform="translate(-90 -90)"/></svg>