<svg id="Layer_1" data-name="Layer 1" xmlns="http://www.w3.org/2000/svg" viewBox="0 0 520 520"><defs><style>.cls-1{fill:none;stroke:#fff;stroke-miterlimit:10;stroke-width:20px;}.cls-2{fill:#fff;}</style></defs><circle class="cls-1" cx="260" cy="260" r="250"/><path class="cls-2" d="M350.07,225H455.22c3.12,0,3.16,0,2.89,3.16-1,11.66-2.05,23.31-3.05,35-.71,8.23-1.32,16.47-2.05,24.69-.91,10.17-1.94,20.32-2.85,30.49-.75,8.29-1.38,16.59-2.09,24.88-.7,8.1-1.46,16.19-2.16,24.29-.72,8.35-1.39,16.71-2.11,25.07-.55,6.28-1.16,12.56-1.71,18.84-.73,8.23-1.42,16.46-2.14,24.68-.37,4.28-.79,8.55-1.15,12.83a2.21,2.21,0,0,1-1.87,2.14q-10.77,3-21.54,6.05-17.17,4.85-34.33,9.73c-8.42,2.38-16.87,4.64-25.22,7.22A19.12,19.12,0,0,1,344,474c-8.1-2.52-16.31-4.69-24.47-7q-19.29-5.49-38.59-11c-5.69-1.62-11.37-3.29-17.1-4.74-2-.51-2.54-1.52-2.77-3.5-1-8.79-1.32-17.63-2.36-26.42-.69-5.87-.93-11.79-1.44-17.69-.78-8.87-1.64-17.74-2.42-26.61-.51-5.7-.92-11.41-1.42-17.11-.81-9-1.69-18-2.48-27-.51-5.76-.88-11.54-1.39-17.31-.79-8.93-1.68-17.86-2.47-26.8-.51-5.83-.89-11.67-1.4-17.5-.78-8.87-1.66-17.74-2.45-26.61-.51-5.77-.89-11.54-1.41-17.31-.18-1.9.47-2.46,2.34-2.45,19.16.06,38.32,0,57.49,0ZM350,271.65H284.77c-2.66,0-2.79,0-2.62,2.74.43,6.56,1,13.11,1.44,19.66.2,2.65.21,2.66,2.81,2.66l48.24,0,52.1,0c2.4,0,2.75.36,2.48,2.49-1,7.75-1.08,15.57-1.75,23.34-.24,2.77-.37,3.1-3,3.07-16.85-.15-33.7.39-50.55.48-15.11.09-30.22.28-45.33.43-.19,0-.39,0-.58,0-1.35-.12-1.67.63-1.51,1.82.21,1.48.42,3,.61,4.44.72,5.55.94,11.14,1.74,16.69.39,2.76.33,2.67,3.27,2.67l79.5-.08c3.6,0,7.2,0,10.8,0,2.35,0,2.52.16,2.25,2.52-.62,5.36-1.18,10.73-1.76,16.09-.53,4.92-.9,9.85-1.63,14.74-.28,1.83.59,4.27-1.3,5.43-1.59,1-3.64,1.21-5.5,1.72-6.38,1.76-12.76,3.53-19.17,5.23-2.21.58-4.38,1.7-6.76,1.05-9.25-2.52-18.48-5.08-27.73-7.59a2.16,2.16,0,0,1-1.75-2.21c-.5-6.22-1.11-12.43-1.55-18.66-.13-1.82-.75-2.49-2.59-2.47-6.94.08-13.89,0-20.83,0-3.56,0-3.52,0-3.21,3.61q1.65,19,3.2,38.11A2.27,2.27,0,0,0,296,412c3.16.84,6.29,1.86,9.44,2.75,14,3.93,28,7.82,42,11.78a9.13,9.13,0,0,0,5.28,0c6-1.77,12-3.46,18-5.14,10.47-2.92,20.93-5.87,31.43-8.68,2.48-.67,4.3-1.53,3.94-4.59a13.23,13.23,0,0,1,.19-2.33q1.1-12.52,2.19-25.07.82-9.42,1.68-18.85,1.1-12.44,2.17-24.88L414,317.54q1.06-12.15,2.14-24.29c.56-6.22,1.18-12.43,1.67-18.66.23-2.92.12-2.93-2.79-2.93Z" transform="translate(-90 -90)"/></svg>