<svg id="Layer_1" data-name="Layer 1" xmlns="http://www.w3.org/2000/svg" viewBox="0 0 520 520"><defs><style>.cls-1{fill:none;stroke:#fff;stroke-miterlimit:10;stroke-width:20px;}.cls-2{fill:#fff;}</style></defs><circle class="cls-1" cx="260" cy="260" r="250"/><path class="cls-2" d="M350,225H453.46c4.36,0,5,.5,4.68,4.9-.59,8.42-1.38,16.82-2.11,25.23-.71,8.08-1.45,16.16-2.17,24.24q-1.38,15.51-2.73,31-1.29,14.79-2.56,29.59-1.35,15.39-2.72,30.79l-2.55,29.09q-1.38,15.64-2.77,31.28c-.38,4.36-.79,8.73-1.07,13.1-.31,4.89-1.13,6.09-5.7,7.39l-80.13,22.81a14.58,14.58,0,0,1-8.28-.1L266,451.57c-4.17-1.19-5-2.5-5.42-6.86-1-12.29-2.16-24.57-3.23-36.86-1-11.8-2-23.6-3-35.4s-2.14-23.76-3.18-35.64c-.88-9.94-1.7-19.89-2.57-29.83-.89-10.18-1.83-20.36-2.72-30.54q-1.31-14.93-2.56-29.83c-.49-5.74-1.06-11.48-1.42-17.22-.24-3.75.5-4.39,4.24-4.39Zm.22,46.51H286.37c-3.36,0-4.15.87-3.85,3.93q.92,9.45,1.77,18.91,2.41,27.52,4.78,55c.4,4.6.71,4.88,5.24,4.88h82.83c.8,0,1.6,0,2.4,0,2.79.11,3.79,1.1,3.72,3.88-.05,1.78-.3,3.55-.46,5.33q-1,11.26-2.07,22.54a5.76,5.76,0,0,1-4.75,5.61q-10.94,2.8-21.78,5.92a16.57,16.57,0,0,1-9.44-.09c-6.77-1.93-13.58-3.76-20.37-5.62-4.47-1.23-5.36-2.37-5.71-7.11-.31-4.13-.67-8.25-1-12.37-.24-2.7-1.32-3.7-4-3.71-6.16,0-12.32,0-18.49,0-3.56,0-4.28.9-4,4.59.95,11.48,1.91,23,2.77,34.46.2,2.63,1.33,4.21,3.82,4.9q25,7,49.95,14a7.14,7.14,0,0,0,4,.06q25-7,49.94-14a4.88,4.88,0,0,0,4-4.8c.43-5.66,1-11.31,1.53-17l2.73-30.06c.87-9.53,1.65-19.08,2.61-28.6.46-4.58.16-5.1-4.44-5.1H320.42c-.88,0-1.77,0-2.64,0-2.69-.2-3.91-1.31-4.26-4-.23-1.77-.29-3.56-.42-5.34-.4-5.26-.88-10.52-1.17-15.78-.14-2.65,1-3.65,3.58-3.77.8,0,1.61,0,2.41,0h93.15c3.59,0,4.29-.72,4.6-4.33.5-5.83,1-11.65,1.59-17.46.46-4.39.14-4.88-4.13-4.88Z" transform="translate(-90 -90)"/></svg>