<svg id="Layer_1" data-name="Layer 1" xmlns="http://www.w3.org/2000/svg" viewBox="0 0 520 520"><defs><style>.cls-1{fill:none;stroke:#fff;stroke-miterlimit:10;stroke-width:20px;}.cls-2{fill:#fff;}</style></defs><circle class="cls-1" cx="260" cy="260" r="250"/><path class="cls-2" d="M350,455H283.33c-11.42,0-21.16-4.08-28.84-12.78A35.78,35.78,0,0,1,245,418q0-68,0-136c0-12.14,5.39-21.77,14.66-29.17,7-5.57,15-7.88,23.83-7.88q66.51,0,133,0c13.65,0,24.52,5.63,32.27,17.18A34.64,34.64,0,0,1,455,281.7c0,45.55.11,91.1-.06,136.64,0,11.92-5.44,21.43-14.57,28.71C433.2,452.73,425,455,416,455,394,454.94,372,455,350,455ZM330.32,299.33h-9.66c-2.24,0-2.35.09-2.37,2.33a14.85,14.85,0,0,1-.54,4.47q-2.47,7.64-5.05,15.23c-2.37,7-4.79,14-7.17,21q-4.65,13.69-9.27,27.39c-2.33,6.85-4.7,13.69-7,20.56-.76,2.26-.52,2.56,1.75,2.56,4.59,0,9.18-.06,13.77,0,1.82,0,2.56-.75,3.07-2.46,1.76-5.93,3.7-11.81,5.51-17.72a2.51,2.51,0,0,1,2.8-2.1c9.67.09,19.33.07,29,0a2.31,2.31,0,0,1,2.56,1.93c2,6.2,4.16,12.35,6.18,18.55a2.16,2.16,0,0,0,2.37,1.76c5.35,0,10.71,0,16.06,0,1.85,0,2.1-.34,1.51-2.07q-4.65-13.59-9.34-27.17-6.83-19.67-13.69-39.3c-2.69-7.73-5.39-15.46-8-23.22a2.32,2.32,0,0,0-2.65-1.83C336.88,299.38,333.6,299.33,330.32,299.33Zm53.76,58.16q0,16.59,0,33.18c0,2.05.18,2.24,2.12,2.24,4.92,0,9.83,0,14.74,0,1.55,0,2.11-.52,2.1-2.13q0-33.27,0-66.53c0-1.59-.51-2.18-2.08-2.15-4.85.06-9.71,0-14.57,0-2.27,0-2.31,0-2.31,2.33Q384.08,341,384.08,357.49Zm9.53-43.7c6.49.56,10.71-5.15,10.7-10.85,0-6.44-4.27-10.86-10.54-10.88A10.57,10.57,0,0,0,383,303C383.22,309.41,387.18,314.11,393.61,313.79Z" transform="translate(-90 -90)"/><path class="cls-2" d="M330.32,353.06c-3.11,0-6.22,0-9.32,0-1.78,0-2-.24-1.5-1.95,1.77-6.21,3.59-12.41,5.39-18.61l4.35-14.91c.11-.37.18-.76.31-1.12s.2-.83.69-.81.58.46.7.83q1,3.34,2,6.71c2.59,8.63,5.15,17.28,7.79,25.9,1.21,4,1.27,4-2.75,4Z" transform="translate(-90 -90)"/></svg>