<svg id="Layer_1" data-name="Layer 1" xmlns="http://www.w3.org/2000/svg" viewBox="0 0 520 520"><defs><style>.cls-1{fill:none;stroke:#fff;stroke-miterlimit:10;stroke-width:20px;}.cls-2{fill:#fff;}</style></defs><circle class="cls-1" cx="260" cy="260" r="250"/><path class="cls-2" d="M451.15,235H248.85A13.85,13.85,0,0,0,235,248.85v202.3A13.85,13.85,0,0,0,248.85,465h202.3A13.85,13.85,0,0,0,465,451.15V248.85A13.85,13.85,0,0,0,451.15,235ZM353.61,402.28c0,17.78-8,32.44-25.68,32.44-12.24,0-20.29-5.52-25.84-16.72l12.3-10.56c3,6.36,7.07,9.24,11.15,9.24,6.48,0,10-3.81,10-16.14V340.63h18.1Zm54,32.44A41.05,41.05,0,0,1,378,421.36L388.38,407c5.69,5.72,13.07,9.65,19.66,9.65,7.56,0,11.26-3.43,11.26-8.91,0-5.82-4.56-7.69-11.55-11l-10.4-5.12c-8.3-3.9-16.16-11.76-16.16-25.18,0-15.31,11.85-27.54,28.52-27.54A34.58,34.58,0,0,1,435.46,351l-9.14,13.16C421.05,359.53,416,357,409.71,357s-10.22,3-10.22,8.29c0,5.66,5.24,7.72,12.23,10.93l10.2,4.77c9.78,4.56,15.88,12.08,15.88,25.13C437.8,421.42,426.72,434.72,407.64,434.72Z" transform="translate(-90 -90)"/></svg>