<svg id="Layer_1" data-name="Layer 1" xmlns="http://www.w3.org/2000/svg" viewBox="0 0 520 520"><defs><style>.cls-1{fill:none;stroke:#fff;stroke-miterlimit:10;stroke-width:20px;}.cls-2{fill:#fff;}</style></defs><circle class="cls-1" cx="260" cy="260" r="250"/><g id="Photosohp"><path class="cls-2" d="M349.39,462.4c-23.55,0-47.11-.32-70.65.09S236.69,443.12,237,419.7c.59-46.79.17-93.59.18-140.38,0-23.93,17.32-41.76,40.7-41.78q72-.07,143.93,0c23.38,0,40.69,17.85,40.7,41.78q0,70.64,0,141.28c0,23.92-17.32,41.73-40.7,41.79C397.66,462.45,373.52,462.4,349.39,462.4ZM288.6,345.94c0,15.08.06,30.16-.05,45.24,0,3.27,1.07,4.64,4.32,4.48,3.5-.18,7-.17,10.51,0,3.28.15,4.37-1.35,4.32-4.54-.12-7.32.08-14.64-.07-22-.08-3.73,1-5.64,5-5.19a41,41,0,0,0,7,0c10-.68,19.92-1.88,27.86-9,10.76-9.65,12.91-22.08,9.41-35.53-3.62-13.85-13.74-20.71-27-22.94-12.17-2-24.45-1-36.71-.47-3.64.16-4.74,1.49-4.7,5.1C288.69,316.07,288.6,331,288.6,345.94Zm102.57,51.61c6,0,12-.24,17.63-2.75,7.69-3.42,12.57-9.08,13.64-17.75q1.76-14.18-10.45-21.36a83.56,83.56,0,0,0-11.49-5.51,42.93,42.93,0,0,1-9.79-5c-1.74-1.29-2.87-3.07-2.35-5.41a4.73,4.73,0,0,1,3.95-3.72,26.66,26.66,0,0,1,4.74-.73,44.07,44.07,0,0,1,18,3.35c1.11.44,2.34,1.63,3.52.06.69-.92.5-15.06-.28-15.94a3.85,3.85,0,0,0-1.8-1.2c-12.13-2.87-24.42-4.6-35.88,1.84-14.55,8.17-14.95,27.5-1.22,36.95,5,3.45,10.69,5.48,16.17,7.95,3.52,1.59,7.88,2.77,7.71,7.94-.11,3.21-4.43,5.27-10.59,5.14a46,46,0,0,1-19.9-4.76c-2.45-1.24-3.48-.85-3.4,2.08.1,3.43.19,6.88,0,10.31-.21,3.27,1.23,4.93,4.12,5.89A55.23,55.23,0,0,0,391.17,397.55Z" transform="translate(-90 -90)"/><path class="cls-2" d="M307.8,329.66c0-4.19,0-8.37,0-12.56,0-2.23.82-3.74,3.26-3.86,5.71-.27,11.42-.34,16.95,1.45,6.57,2.12,10.36,6.9,10.68,13.24.43,8.46-2.1,13.09-8.84,16.34-6.22,3-12.83,2.48-19.4,2.3-2.46-.07-2.58-2.13-2.62-3.91C307.74,338.33,307.8,334,307.8,329.66Z" transform="translate(-90 -90)"/></g></svg>