<svg id="Layer_1" data-name="Layer 1" xmlns="http://www.w3.org/2000/svg" viewBox="0 0 520 520"><defs><style>.cls-1{fill:none;stroke:#fff;stroke-miterlimit:10;stroke-width:20px;}.cls-2{fill:#fff;}</style></defs><circle class="cls-1" cx="260" cy="260" r="250"/><path class="cls-2" d="M349.92,225c68.6-.52,125.22,56.23,125.08,125.23-.14,68.46-56.42,125-125.4,124.77-68.69-.22-125.14-56.9-124.6-126.06C225.54,280.88,281.49,224.65,349.92,225Zm34.63,30.9a82.49,82.49,0,0,0-11.65.64c-1.61.24-3.23.42-4.81.76a169.44,169.44,0,0,0-70.75,33.82c-9.61,7.64-17.66,16.72-23,28-4.78,10.08-4.15,19.57,2.19,28.79,5,7.27,11.4,13.1,18.39,18.31,7.55,5.63,15.31,11,22.93,16.51,2.53,1.85,2.44,2-.29,3.48-9.82,5.13-19.21,10.91-27.43,18.42-7.58,6.93-12.27,15.17-10.58,25.84.89,5.61,3.24,10.54,9.28,12.3a31,31,0,0,0,15.65.34C328,437.82,342,414.15,335,389.9c-.63-2.18-.21-2.87,1.9-3.23,9.13-1.55,18.13-1.27,26.88,1.89,5.56,2,10.23,5.27,13.24,10.57,4,7,2.47,13.91-4,18.66-.83.61-2.72,1-2,2.24s2.32.23,3.47-.25a11.3,11.3,0,0,0,1.69-1c7.49-4.84,9.84-13.43,6-22.34-3.36-7.86-9.38-13-17.25-15.87-11-4.07-22.19-3-33.33-.58-1.44.32-2.41.27-3.45-.84A97.09,97.09,0,0,0,317,369.37c-6.51-5.12-13.25-9.95-19-16-9.81-10.25-11.24-22.33-4-34.54A49.25,49.25,0,0,1,304.67,306c22.71-18.93,48-32.45,77.91-35.37,8.72-.86,17.36,0,25.37,4.13,5.45,2.81,8.08,7.37,7.95,13.45-.16,7.12-3.18,13.2-7.43,18.7C398,320.43,383.92,328.08,367.6,332c-7.13,1.73-14.36,2.76-21.7,1.48-5.39-.94-10.31-2.87-14.2-6.92-.53-.55-1.07-1.51-2-1s-.6,1.61-.39,2.44a10,10,0,0,0,1.95,3.63,24.07,24.07,0,0,0,5,4.65c5.78,4.18,12.44,5.45,19.34,5.63a83.8,83.8,0,0,0,38.52-8c16.16-7.67,28.18-19.61,33.24-37.14,4.95-17.13-1-30-17.74-36.72A63.13,63.13,0,0,0,384.55,255.9Z" transform="translate(-90 -90)"/><path class="cls-2" d="M326.75,400.68c0,13.68-10.25,27.29-22.95,30.51-8.27,2.11-12.1-1.77-9.82-10.05,2.06-7.51,6.93-13.1,12.73-18a95.75,95.75,0,0,1,16.63-10.95c1.6-.86,2.32-.59,2.62,1.23A37.48,37.48,0,0,1,326.75,400.68Z" transform="translate(-90 -90)"/></svg>